<svg xmlns="http://www.w3.org/2000/svg" width="26" height="26" viewBox="0 0 26 26" fill="none">
  <path d="M13 23.8337C7.01671 23.8337 2.16663 18.9836 2.16663 13.0003C2.16663 7.01708 7.01671 2.16699 13 2.16699C18.9832 2.16699 23.8333 7.01708 23.8333 13.0003C23.8333 18.9836 18.9832 23.8337 13 23.8337ZM13 21.667C15.2985 21.667 17.5029 20.7539 19.1282 19.1286C20.7535 17.5033 21.6666 15.2989 21.6666 13.0003C21.6666 10.7018 20.7535 8.49738 19.1282 6.87207C17.5029 5.24675 15.2985 4.33366 13 4.33366C10.7014 4.33366 8.49702 5.24675 6.8717 6.87207C5.24639 8.49738 4.33329 10.7018 4.33329 13.0003C4.33329 15.2989 5.24639 17.5033 6.8717 19.1286C8.49702 20.7539 10.7014 21.667 13 21.667ZM9.74996 8.66699H16.25L18.9583 12.4587L13 18.417L7.04163 12.4587L9.74996 8.66699ZM10.8658 10.8337L9.86913 12.2312L13 15.362L16.1308 12.2312L15.1341 10.8337H10.8658Z" fill="#8676FF"/>
</svg>